HIERARCHY
ROOT hip
{
	OFFSET 0.000000 0.000000 0.000000 
	CHANNELS 6 Xposition Yposition Zposition Xrotation Zrotation Yrotation
	JOINT abdomen
	{
		OFFSET 0.000000 3.402643 0.000000 
		CHANNELS 3 Xrotation Zrotation Yrotation
		JOINT chest
		{
			OFFSET 0.000000 8.438565 -0.680529 
			CHANNELS 3 Xrotation Zrotation Yrotation
			JOINT neck
			{
				OFFSET 0.000000 10.207942 -0.272212 
				CHANNELS 3 Xrotation Zrotation Yrotation
				JOINT head
				{
					OFFSET 0.000000 3.130431 0.000000 
					CHANNELS 3 Xrotation Zrotation Yrotation
					End Site
					{
						OFFSET 0.000000 3.130435 0.000000 
					}
				}
			}
			JOINT lCollar
			{
				OFFSET 3.470700 6.669187 -0.816635 
				CHANNELS 3 Yrotation Zrotation Xrotation
				JOINT lShldr
				{
					OFFSET 3.198488 0.000000 0.000000 
					CHANNELS 3 Zrotation Yrotation Xrotation
					JOINT lForeArm
					{
						OFFSET 10.139888 0.000000 0.000000 
						CHANNELS 3 Yrotation Zrotation Xrotation
						JOINT lHand
						{
							OFFSET 8.370511 0.000000 0.000000 
							CHANNELS 3 Zrotation Yrotation Xrotation
							End Site
							{
								OFFSET 4.083176 0.000000 0.000000 
							}
						}
					}
				}
			}
			JOINT rCollar
			{
				OFFSET -3.470700 6.669187 -0.816635 
				CHANNELS 3 Yrotation Zrotation Xrotation
				JOINT rShldr
				{
					OFFSET -3.198488 0.000000 0.000000 
					CHANNELS 3 Zrotation Yrotation Xrotation
					JOINT rForeArm
					{
						OFFSET -10.139888 0.000000 0.000000 
						CHANNELS 3 Yrotation Zrotation Xrotation
						JOINT rHand
						{
							OFFSET -8.370511 0.000000 0.000000 
							CHANNELS 3 Zrotation Yrotation Xrotation
							End Site
							{
								OFFSET -4.083176 0.000000 0.000000 
							}
						}
					}
				}
			}
		}
	}
	JOINT lThigh
	{
		OFFSET 5.308129 -1.633274 1.361059 
		CHANNELS 3 Xrotation Zrotation Yrotation
		JOINT lShin
		{
			OFFSET -2.041588 -20.007561 0.000000 
			CHANNELS 3 Xrotation Zrotation Yrotation
			JOINT lFoot
			{
				OFFSET 0.000000 -19.190928 -1.224953 
				CHANNELS 3 Xrotation Yrotation Zrotation
				End Site
				{
					OFFSET 0.000000 -2.449906 4.627600 
				}
			}
		}
	}
	JOINT rThigh
	{
		OFFSET -5.308129 -1.633274 1.361059 
		CHANNELS 3 Xrotation Zrotation Yrotation
		JOINT rShin
		{
			OFFSET 2.041588 -20.007561 0.000000 
			CHANNELS 3 Xrotation Zrotation Yrotation
			JOINT rFoot
			{
				OFFSET 0.000000 -19.190928 -1.224953 
				CHANNELS 3 Xrotation Yrotation Zrotation
				End Site
				{
					OFFSET 0.000000 -2.449906 4.627600 
				}
			}
		}
	}
}
MOTION
Frames: 6
Frame Time: 0.016667
0.972548 48.332306 9.463867 7.005469 9.726357 9.305889 45.589161 7.572631 2.210113 7.073743 4.504910 -6.967857 -16.605982 11.941838 -3.874284 -18.005716 -6.209835 20.151796 -20.950218 3.098794 0.162433 -53.577438 2.523589 -14.542634 -56.259495 -5.000000 3.736611 -21.750629 -7.012746 7.649525 11.893989 10.240622 -0.542385 33.542694 -0.291214 -11.695900 58.878239 -5.000000 -4.679172 8.980884 -21.825504 -1.678025 -8.386694 8.640874 -4.410349 48.905342 -4.163493 -5.187744 -36.473164 9.225696 -9.987023 -38.178375 -16.190784 17.872311 6.283268 3.344864 0.440217 25.949869 -13.165112 16.965460 
0.866458 48.115437 9.614358 8.487668 9.488371 6.615713 46.657608 6.930476 2.720884 6.871341 4.092207 -5.390497 -17.695982 11.924812 -4.044142 -19.605330 -6.179015 21.576273 -20.823687 3.245084 0.169983 -54.546085 3.259051 -15.059042 -58.203499 -5.000000 2.186597 -21.954895 -6.678212 7.298168 12.718134 9.606589 -0.509565 33.915184 0.495608 -11.087335 58.106262 -5.000000 -5.747106 9.514970 -20.750458 -3.852704 -10.858631 8.778735 -2.279475 52.201370 -3.646235 -5.076286 -36.581352 9.800856 -8.987049 -42.280762 -14.189569 18.310976 10.371819 5.191287 1.239313 23.257574 -13.035803 13.824781 
0.760369 47.898579 9.764850 9.980286 9.304747 3.918859 47.725426 6.291748 3.207859 6.652184 3.696614 -3.823775 -18.783201 11.899628 -4.201077 -21.219765 -6.107482 23.008188 -20.706940 3.391372 0.177532 -55.521770 3.985133 -15.597782 -60.086384 -2.887339 0.782493 -22.164204 -6.355680 6.947447 13.542752 8.982309 -0.475661 34.309422 1.272543 -10.480257 57.314056 -5.000000 -6.857550 9.970136 -19.669621 -5.994072 -13.303002 9.008595 -0.137344 55.506367 -3.129100 -4.936685 -36.719105 10.389933 -7.968060 -46.335392 -12.177667 18.566023 14.482257 6.959723 2.212443 20.657467 -12.700535 10.752340 
0.676447 47.818157 9.931885 11.236932 9.416329 2.307026 48.625648 6.055193 2.982464 6.896919 3.629131 -3.442217 -18.891176 12.259342 -4.362481 -22.784506 -5.698523 24.729828 -20.462030 3.316765 0.164372 -55.930080 5.110409 -16.723141 -61.269939 -2.048097 0.277745 -21.769190 -6.688159 5.469839 14.379264 8.760292 -0.454676 34.190834 3.033233 -9.792668 56.553646 -5.000000 -7.711183 10.337332 -18.734304 -8.342082 -15.502247 8.912676 1.253378 58.064625 -2.885415 -5.057344 -35.709698 11.075932 -6.499213 -49.079018 -11.630909 18.761480 16.949371 8.744790 3.138442 18.299999 -12.842471 10.279180 
0.614691 47.874172 10.115438 12.257296 9.760933 1.794963 49.363701 6.229053 2.054231 7.610987 3.900541 -4.274351 -18.019932 13.005456 -4.519545 -24.289539 -4.939843 26.728004 -20.090145 3.024128 0.149247 -55.810749 6.645367 -18.451998 -61.795277 -2.613088 0.562238 -20.726049 -7.599781 2.854079 15.230385 8.945586 -0.464265 33.590199 5.796962 -9.045408 55.871346 -5.000000 -8.291016 10.638587 -17.951241 -10.919470 -17.416790 8.425289 1.918830 59.835175 -2.933237 -5.420967 -33.576214 11.979405 -4.662283 -50.530819 -12.656691 18.978647 17.727303 9.992983 4.021673 16.249496 -13.340933 12.509290 
0.552933 47.930191 10.298993 13.273163 10.104916 1.290956 50.112335 6.416080 1.134785 8.320202 4.181155 -5.087746 -17.136894 13.754586 -4.656363 -25.769361 -4.139283 28.704304 -19.718752 2.718444 0.142798 -55.737587 8.183070 -20.181255 -62.318436 -3.175747 0.827918 -19.642412 -8.444093 0.200327 16.073360 9.137927 -0.483618 33.016808 8.561831 -8.318762 55.168980 -5.000000 -8.900177 10.875610 -17.184216 -13.475397 -19.343296 7.967740 2.625322 61.624500 -2.933644 -5.820913 -31.452875 12.971093 -2.863501 -51.991543 -13.642399 19.220697 18.550577 9.984234 4.911155 14.214504 -14.031817 14.671909 
